<?xml version="1.0" encoding="UTF-8" standalone="no"?>
<!-- Generator: Adobe Illustrator 16.0.0, SVG Export Plug-In . SVG Version: 6.00 Build 0)  -->

<svg
   version="1.1"
   id="Capa_1"
   x="0px"
   y="0px"
   width="35.418px"
   height="35.418px"
   viewBox="0 0 35.418 35.418"
   style="enable-background:new 0 0 35.418 35.418;"
   xml:space="preserve"
   sodipodi:docname="amkor.svg"
   inkscape:version="1.1.2 (b8e25be8, 2022-02-05)"
   xmlns:inkscape="http://www.inkscape.org/namespaces/inkscape"
   xmlns:sodipodi="http://sodipodi.sourceforge.net/DTD/sodipodi-0.dtd"
   xmlns="http://www.w3.org/2000/svg"
   xmlns:svg="http://www.w3.org/2000/svg"><defs
   id="defs117" /><sodipodi:namedview
   id="namedview115"
   pagecolor="#ffffff"
   bordercolor="#666666"
   borderopacity="1.0"
   inkscape:pageshadow="2"
   inkscape:pageopacity="0.0"
   inkscape:pagecheckerboard="0"
   showgrid="false"
   inkscape:zoom="15.09325"
   inkscape:cx="17.6569"
   inkscape:cy="17.690027"
   inkscape:window-width="1792"
   inkscape:window-height="982"
   inkscape:window-x="1160"
   inkscape:window-y="1105"
   inkscape:window-maximized="1"
   inkscape:current-layer="Capa_1" />

<g
   id="g84">
</g>
<g
   id="g86">
</g>
<g
   id="g88">
</g>
<g
   id="g90">
</g>
<g
   id="g92">
</g>
<g
   id="g94">
</g>
<g
   id="g96">
</g>
<g
   id="g98">
</g>
<g
   id="g100">
</g>
<g
   id="g102">
</g>
<g
   id="g104">
</g>
<g
   id="g106">
</g>
<g
   id="g108">
</g>
<g
   id="g110">
</g>
<g
   id="g112">
</g>
<path
   class="st0"
   d="m 24.520674,12.146851 -1.504535,3.702289 c -0.1456,-0.05071 -3.737068,-0.05071 -4.222401,-0.05071 0.388267,-1.977934 2.572267,-7.2017106 4.028268,-8.317469 0.582401,-0.4564494 1.164801,-0.6593141 1.650134,-0.6593141 v 0 c 2.184001,-0.050715 3.542936,3.3979901 4.416536,5.4266401 1.261868,2.890829 2.378136,5.933805 3.542937,8.926065 0.2912,0.760745 0.5824,1.52149 0.8736,2.231518 0.145599,0.355014 0.291199,0.710027 0.485333,1.06504 0.04853,0.05071 0.04853,0.101435 0.04853,0.152149 0.922133,-2.130082 1.456,-4.513748 1.456,-6.998845 0,-9.6868088 -7.813872,-17.49711663 -17.423477,-17.49711663 -9.6096055,0 -17.42347741,7.81030783 -17.42347741,17.49711663 0,9.686809 7.81387191,17.547832 17.42347741,17.547832 5.387203,0 10.192006,-2.434383 13.395208,-6.288819 z m -0.04854,11.259015 c -1.0192,0 -3.251735,-0.05071 -4.222402,0 -0.2912,0 -0.1456,0 -0.242667,0.101433 v 0 l -2.329594,5.832375 H 13.309465 L 17.2892,19.348568 h 7.182938 z"
   id="path242"
   style="fill:#0404a3;stroke:#ffffff;stroke-width:0.51513;stroke-opacity:0" /><path
   style="fill:#000000;stroke:none;stroke-width:0.0662548"
   d="M 15.834893,35.020045 C 10.512308,34.343423 5.8567116,31.341465 3.0693355,26.788734 -0.47048388,21.007007 -0.36488662,13.681991 3.3394732,8.049956 4.2906277,6.6038395 5.6507144,5.0862251 6.8920657,4.0858954 10.088437,1.510134 13.839221,0.17819826 17.888791,0.18086377 c 3.42547,0.002255 6.617905,0.94940323 9.425577,2.79642963 4.538703,2.9857854 7.311851,7.5825776 7.873764,13.0516126 0.09714,0.94547 0.04004,3.163875 -0.105003,4.07942 -0.221902,1.400691 -0.682883,3.104573 -1.093428,4.041542 l -0.145152,0.331274 -0.152522,-0.298147 C 33.504142,23.815723 32.894519,22.276786 31.369284,18.319447 29.608981,13.752208 28.28218,10.615905 27.602495,9.4154829 26.57298,7.5972099 25.650962,6.8200526 24.519038,6.8164755 c -1.342101,-0.00424 -2.304927,0.8826276 -3.547079,3.2672545 -0.889357,1.707345 -1.902538,4.290572 -2.184232,5.568962 l -0.04015,0.182201 2.005469,9.07e-4 c 1.103008,5.31e-4 2.067795,0.01764 2.143972,0.03809 0.126493,0.03396 0.201171,-0.118265 0.861312,-1.755736 0.397545,-0.986107 0.73877,-1.793336 0.758277,-1.793842 0.03357,-8.68e-4 6.61124,16.271071 6.673397,16.508764 0.04546,0.173849 -1.852358,2.033015 -2.799832,2.742806 -2.443519,1.830537 -4.923669,2.88282 -7.964,3.378983 -0.891029,0.14541 -3.651852,0.184606 -4.591281,0.06518 z m 3.057046,-8.601783 1.168785,-2.930942 0.42133,-0.04929 c 0.231731,-0.02711 1.233779,-0.03117 2.226772,-0.009 l 1.805443,0.04026 v -2.061436 -2.061437 h -3.634818 -3.634817 l -0.134979,0.347838 c -0.07424,0.191311 -0.969276,2.442317 -1.988975,5.002236 l -1.853997,4.654398 2.228235,-8.35e-4 2.228236,-8.34e-4 1.168785,-2.930942 z"
   id="path4517" /></svg>
