<?xml version="1.0" encoding="utf-8"?>
<!-- Generator: Adobe Illustrator 25.0.1, SVG Export Plug-In . SVG Version: 6.00 Build 0)  -->
<svg version="1.0"
	 id="svg3131" inkscape:version="0.48.0 r9654" sodipodi:docname="amkor2.svg" xmlns:cc="http://creativecommons.org/ns#" xmlns:dc="http://purl.org/dc/elements/1.1/" xmlns:inkscape="http://www.inkscape.org/namespaces/inkscape" xmlns:rdf="http://www.w3.org/1999/02/22-rdf-syntax-ns#" xmlns:sodipodi="http://sodipodi.sourceforge.net/DTD/sodipodi-0.dtd" xmlns:svg="http://www.w3.org/2000/svg"
	 xmlns="http://www.w3.org/2000/svg" xmlns:xlink="http://www.w3.org/1999/xlink" x="0px" y="0px" viewBox="0 0 315.6 210"
	 style="enable-background:new 0 0 315.6 210;" xml:space="preserve">
<style type="text/css">
	.st0{fill:#0404A3;stroke:#FFFFFF;stroke-width:1.0383;stroke-opacity:0;}
	.st1{fill-rule:evenodd;clip-rule:evenodd;fill:#0404A3;}
	.st2{fill:#0404A3;}
</style>
<sodipodi:namedview  bordercolor="#666666" borderopacity="1.0" fit-margin-bottom="0" fit-margin-left="0" fit-margin-right="0" fit-margin-top="0" id="base" inkscape:current-layer="layer1" inkscape:cx="95.610399" inkscape:cy="2.2636805" inkscape:document-units="px" inkscape:pageopacity="0.0" inkscape:pageshadow="2" inkscape:showpageshadow="false" inkscape:window-height="746" inkscape:window-maximized="1" inkscape:window-width="1250" inkscape:window-x="-8" inkscape:window-y="-8" inkscape:zoom="2.8284271" pagecolor="#ffffff" showborder="false" showgrid="false">
	</sodipodi:namedview>
<path class="st0" d="M107.9,88l-3.1,7.3c-0.3-0.1-7.7-0.1-8.7-0.1c0.8-3.9,5.3-14.2,8.3-16.4c1.2-0.9,2.4-1.3,3.4-1.3l0,0
	c4.5-0.1,7.3,6.7,9.1,10.7c2.6,5.7,4.9,11.7,7.3,17.6c0.6,1.5,1.2,3,1.8,4.4c0.3,0.7,0.6,1.4,1,2.1c0.1,0.1,0.1,0.2,0.1,0.3
	c1.9-4.2,3-8.9,3-13.8c0-19.1-16.1-34.5-35.9-34.5S58.3,79.7,58.3,98.8c0,19.1,16.1,34.6,35.9,34.6c11.1,0,21-4.8,27.6-12.4
	L107.9,88z M107.8,110.2c-2.1,0-6.7-0.1-8.7,0c-0.6,0-0.3,0-0.5,0.2v0l-4.8,11.5l-9,0l8.2-19.7l14.8,0V110.2z"/>
<path id="path4981" inkscape:connector-curvature="0" class="st1" d="M142,121.4c0.1-1,0-8.9,0-10.6c0-3.2,0-7,3.6-7
	c3.6,0,3.6,3.9,3.6,7.1c0,1.6-0.1,9.7,0,10.6l8,0c0.1-1.1,0-8.6,0-10.5c0-3.3,0.1-6.8,3.6-6.9c3.7-0.2,3.6,3.7,3.6,6.9
	c0,3.5,0,7,0,10.5h8.1c0-3.7,0-7.4,0-11c0-3.4,0.3-6.9-1.3-9.7c-1.3-2.2-3.9-3.6-7.6-3.2c-1.5,0.2-2.9,0.7-4,1.5
	c-1.4,1-1.6,1.4-2.6,2.8c-0.4-0.4-0.8-1.2-1.2-1.7c-1.6-1.7-3.4-2.5-6-2.7c-5.5-0.3-7,3.2-7.8,3.6l0-2.9l-8,0l0,23.2L142,121.4
	L142,121.4z"/>
<path id="path5035" inkscape:connector-curvature="0" class="st1" d="M184.1,112c0.3,0.3,0.5,0.6,0.9,0.9l6.2,6.7
	c0.3,0.3,0.6,0.6,0.9,0.9c0.2,0.2,0.6,0.8,1,0.8c0.9,0.1,9.7,0,11.1,0c-0.1-0.3-5.3-5.5-6-6.2c-1-1.1-2-2.1-3-3.1
	c-0.6-0.6-2.8-2.7-3-3.2c0.4-0.2,5.1-4.8,5.7-5.3c1.3-1.1,2.9-2.8,4.2-4c0.2-0.2,1.3-1.3,1.4-1.4l-10.4,0c-0.9,0-1,0.4-2,1.4
	c-0.5,0.5-6.6,6.6-6.9,6.9l-0.1,0c-0.1,0,0-20.7,0-22.7h-8l0,37.6h8v-9.2C184,111.8,184,112.3,184.1,112
	C184.1,112,184.1,112,184.1,112L184.1,112z"/>
<path id="path5608" inkscape:connector-curvature="0" class="st1" d="M211,109.5c-0.4-6.9,9.9-7.4,10.2-0.6
	C221.6,115.7,211.3,116.2,211,109.5z M215.3,96.8c-18.1,1-16.5,25.7,1.9,24.6C235.2,120.4,233.6,95.8,215.3,96.8z"/>
<path id="path5664" inkscape:connector-curvature="0" class="st1" d="M240.9,102c-0.1-0.2,0-3.2,0-3.7c-1.4,0-2.7,0-4.1,0
	c-0.6,0-3.7-0.1-4,0l0,23.1l8.1,0c0-3.2-0.3-10.1,0.4-12.7c1-3.6,4.9-4.6,8.6-2.9l0-7.8c-1.7-0.3-4.3,0.2-5.6,0.9
	c-0.8,0.4-1.4,0.9-1.9,1.4C242.3,100.3,240.9,102,240.9,102L240.9,102z"/>
<path id="path5724" inkscape:connector-curvature="0" class="st1" d="M146.6,133.7c0-0.2,0.2-0.6,0.2-0.7c0.1-0.2,0.3-0.4,0.4-0.5
	c0.8-0.6,2-0.6,2.8,0c0.3,0.3,0.7,0.8,0.7,1.2L146.6,133.7L146.6,133.7z M154,135.8c0-0.2,0-1,0-1.3c0-0.4-0.1-0.8-0.2-1.1
	c-0.5-2-2.1-3.4-4.3-3.6c-3.4-0.4-5.8,1.3-6.4,4.2c-0.3,1.6,0,3.2,0.7,4.4c0.6,1,1.7,1.8,3.2,2.1c2.1,0.5,4.6,0.1,6-1.5
	c0.3-0.4,0.8-1.1,0.9-1.8l-3.4,0c-0.1,0.2-0.3,0.4-0.4,0.5c-0.5,0.5-1.5,0.5-2.1,0.3c-0.9-0.2-1.4-1-1.4-2.2L154,135.8L154,135.8z"
	/>
<path id="path5780" inkscape:connector-curvature="0" class="st1" d="M163.2,137.1c-0.1,0-0.5,0.3-0.6,0.3c-1.6,0.9-3.7-0.1-3.7-2.2
	c0-1,0.6-1.9,1.5-2.3c1.5-0.7,2.6,0.5,2.8,0.5l0-3.1c-0.8-0.5-2-0.7-2.9-0.6c-2.9,0.3-5,2.5-5.1,5.5c-0.1,3.7,3.3,6.1,6.7,5.4
	c0.3-0.1,1-0.3,1.3-0.5L163.2,137.1L163.2,137.1z"/>
<path id="path5834" inkscape:connector-curvature="0" sodipodi:nodetypes="ccscccccscccccc" class="st1" d="M165.2,140.7l3.5,0
	c0-0.1,0-0.4,0-0.8c0-1.2,0-3.3,0-3.9c0-1.5,0.2-2.9,1.7-3c1.7-0.1,1.8,1.4,1.8,2.9c0,1.6,0,3.2,0,4.8h3.6c0-1.6,0-3.2,0-4.8
	c0-1.6,0.1-2.9-0.6-4.2c-1.2-2-4.4-2.1-5.8-0.6c-0.1,0.1-0.5,0.5-0.6,0.6V124l-3.6,0L165.2,140.7z"/>
<path id="path5888" inkscape:connector-curvature="0" class="st1" d="M181.3,131.7v-1.3h-3.6l0,10.3l3.6,0c0-1.6,0-3.1,0-4.7
	c0-1.5,0.1-2.9,1.7-3c1.8-0.1,1.7,1.4,1.7,3c0,1.6,0,3.2,0,4.8l3.6,0c0-1.6,0-3.2,0-4.8c0-1.5,0.1-3-0.6-4.2c-0.6-1-1.7-1.6-3.3-1.6
	c-1.3,0-2.1,0.4-2.9,1.3C181.3,131.7,181.4,131.6,181.3,131.7L181.3,131.7z"/>
<path id="path5912" inkscape:connector-curvature="0" class="st1" d="M193.9,135.4c-0.2-3.1,4.4-3.3,4.5-0.3
	C198.6,138.1,194,138.3,193.9,135.4z M195.8,129.7c-8,0.5-7.3,11.4,0.8,11C204.6,140.2,203.9,129.2,195.8,129.7z"/>
<path id="path5914" inkscape:connector-curvature="0" class="st1" d="M212.9,135.4c-0.2-3.1,4.4-3.3,4.5-0.3
	C217.6,138.1,213,138.3,212.9,135.4z M214.8,129.7c-8,0.5-7.3,11.4,0.8,11C223.6,140.2,222.9,129.2,214.8,129.7z"/>
<rect id="rect5916" x="204.1" y="124.3" class="st2" width="3.3" height="16.4"/>
<path id="path5948" inkscape:connector-curvature="0" class="st1" d="M235.2,130c0.1,0.2,4,7.3,4.2,7.7c0.9,1.5,0.7,1.1,0.3,2
	c-0.3,0.6-0.7,1.3-1,1.9c-0.3,0.7-1.9,3.5-2,3.9h3.9c0.2-0.1,5.3-10,6.1-11.6c0.3-0.5,1.9-3.6,2-3.9l-4.1,0l-2.7,5.2l-2.6-5.2
	L235.2,130L235.2,130z"/>
<path id="path6002" inkscape:connector-curvature="0" class="st1" d="M228.4,132.8c3.2-0.4,3.6,4.2,0.7,4.6
	C225.8,137.8,225.5,133.2,228.4,132.8z M230.9,131.1c-0.4-0.3-0.4-0.6-1-0.9c-2.4-1.5-7,0.2-7.2,4.9c-0.1,3.5,2.6,5.9,5.7,5.4
	c1.3-0.2,1.5-0.6,2.4-1.3c0,1.1,0,2.6-1.1,3.2c-0.5,0.3-1.2,0.3-1.8,0.2c-1-0.2-1-0.9-1.2-0.9h-3.9c0.5,4.2,7.6,5.1,10.1,2.4
	c1.6-1.7,1.5-4.1,1.5-6.2c0-2.6,0-5.1,0-7.7h-3.6L230.9,131.1L230.9,131.1z"/>
<path id="path6061" inkscape:connector-curvature="0" sodipodi:nodetypes="cccccsccccc" class="st1" d="M133.8,128.9
	c0.4,0,2.7,0,3.2,0l0,11.8l3.9,0l0-11.9c0,0,0.2,0,0.3,0c0.7,0,2.6,0,2.9,0v-3.3c-0.1,0-10.1,0-10.3,0L133.8,128.9L133.8,128.9z"/>
<path id="path6130" inkscape:connector-curvature="0" class="st1" d="M249.8,128.4c-0.2-2.3,1.5-4.1,3.6-4.3c2.3-0.2,4,1.6,4.2,3.7
	c0.2,2.3-1.5,4.1-3.6,4.3C251.7,132.2,249.9,130.4,249.8,128.4L249.8,128.4z M253.2,123.4c-2.4,0.2-4.4,2.4-4.1,5.1
	c0.2,2.4,2.3,4.5,5,4.2c2.4-0.2,4.3-2.4,4.1-5.1C258,125.2,255.9,123.2,253.2,123.4L253.2,123.4z"/>
<path id="path6132" inkscape:connector-curvature="0" class="st1" d="M252.9,127.7V126c0.8,0,1.9-0.1,1.9,0.8
	C254.8,127.8,253.7,127.7,252.9,127.7L252.9,127.7z M251.8,130.5L251.8,130.5l1.1,0.1l0-2.2h0.8l1,2.2h1.2l-1.1-2.4
	c0.3-0.1,0.6-0.2,0.9-0.6c0.2-0.3,0.3-0.9,0.1-1.3c-0.3-0.8-1.2-1-2.1-1h-2L251.8,130.5L251.8,130.5z"/>
</svg>
