<?xml version="1.0" encoding="UTF-8"?>
<!-- Generator: Adobe Illustrator 16.0.0, SVG Export Plug-In . SVG Version: 6.00 Build 0)  -->
<svg width="35.418px" height="35.418px" enable-background="new 0 0 35.418 35.418" version="1.1" viewBox="0 0 35.418 35.418" xml:space="preserve" xmlns="http://www.w3.org/2000/svg">
















<path class="st0" d="m21.548 0.51513c-1.3739 0-2.8852 0.38905-3.8194 1.7637-8.0876 11.905-17.485 8.9915-17.485 18.069 0 9.0779 7.8311 14.819 17.485 14.819 9.6538 0 17.485-7.3575 17.485-16.444 0-7.418-5.065-17.827-13.656-18.208z" fill="#1d1d1b" stroke-width=".088988"/><path class="st1" d="m22.638 14.469c1.0442 0.7954 1.6945 1.8675 1.9509 3.2248h-2.7111c-0.11907-0.67436-0.50376-1.2882-1.0808-1.7118-0.57703-0.41499-1.2914-0.62248-2.1616-0.62248-0.93424-0.01732-1.8318 0.33718-2.4638 0.97696-0.65946 0.64842-0.9892 1.6081-0.9892 2.8704 0 1.2623 0.32973 2.2219 0.98004 2.879 0.63198 0.64842 1.5296 1.0115 2.4638 0.9856 0.86096 0 1.5845-0.2075 2.1616-0.63113 0.57703-0.42364 0.96172-1.0461 1.0808-1.7291h2.7111c-0.25646 1.3574-0.90676 2.4381-1.9509 3.2421-1.0442 0.80405-2.3631 1.2017-3.9659 1.2017-1.1907 0-2.2532-0.24208-3.1691-0.71759-0.91592-0.47551-1.667-1.1931-2.1616-2.0577-0.52208-0.89915-0.77853-1.9539-0.77853-3.1816 0-1.2017 0.26562-2.2565 0.78769-3.1557 0.4946-0.87321 1.2457-1.5908 2.1616-2.0663 0.91592-0.47551 1.9692-0.71759 3.1691-0.71759 1.6029 0.01732 2.9218 0.415 3.9659 1.2104z" fill="#fff" stroke-width=".088988"/></svg>
