<?xml version="1.0" encoding="UTF-8"?>
<svg width="64" height="64" version="1.1" viewBox="0 0 144 64" xmlns="http://www.w3.org/2000/svg">
 <path class="st0" d="m87.153-38.919c-5.641 0-11.846 1.6002-15.682 7.2542-33.206 48.966-71.79 36.982-71.79 74.32s32.153 60.949 71.79 60.949 71.79-30.261 71.79-67.635c0-30.51-20.796-73.324-56.071-74.889z" fill="#1d1d1b" stroke-width=".36569"/>
 <path class="st1" d="m91.628 18.475c4.2871 3.2715 6.9572 7.6809 8.0101 13.264h-11.131c-0.48888-2.7737-2.0683-5.2984-4.4375-7.0408-2.3692-1.7069-5.3025-2.5603-8.8751-2.5603-3.8359-0.0711-7.5213 1.3868-10.116 4.0182-2.7076 2.667-4.0615 6.6141-4.0615 11.806 0 5.1917 1.3538 9.1388 4.0239 11.841 2.5948 2.667 6.2803 4.1605 10.116 4.0538 3.535 0 6.5059-0.85344 8.8751-2.5959 2.3692-1.7424 3.9487-4.3027 4.4375-7.1119h11.131c-1.053 5.5829-3.723 10.028-8.0102 13.335-4.2871 3.3071-9.7024 4.9428-16.284 4.9428-4.8888 0-9.2512-0.99568-13.012-2.9515-3.7606-1.9558-6.8443-4.9072-8.8751-8.4632-2.1436-3.6982-3.1965-8.0365-3.1965-13.086 0-4.9428 1.0906-9.2811 3.2341-12.979 2.0307-3.5915 5.1145-6.543 8.8751-8.4988s8.0854-2.9515 13.012-2.9515c6.5811 0.07109 11.996 1.7069 16.284 4.9783z" fill="#fff" stroke-width=".36569"/>
</svg>
