<?xml version="1.0" encoding="utf-8"?>
<!-- Generator: Adobe Illustrator 25.4.1, SVG Export Plug-In . SVG Version: 6.00 Build 0)  -->
<svg version="1.0" id="katman_1" xmlns="http://www.w3.org/2000/svg" xmlns:xlink="http://www.w3.org/1999/xlink" x="0px" y="0px"
	 viewBox="0 0 1360.6 935.4" style="enable-background:new 0 0 1360.6 935.4;" xml:space="preserve">
<style type="text/css">
	.st0{fill:#1D1D1B;}
	.st1{fill:#FFFFFF;}
	.st2{fill-rule:evenodd;clip-rule:evenodd;fill:#1D1D1B;}
</style>
<g>
	<path class="st0" d="M336.2,267.2c-15,0-31.5,4.5-41.7,20.4c-88.3,137.7-190.9,104-190.9,209S189.1,668,294.5,668
		c105.4,0,190.9-85.1,190.9-190.2c0-85.8-55.3-206.2-149.1-210.6H336.2z"/>
	<path class="st1" d="M348.1,428.6c11.4,9.2,18.5,21.6,21.3,37.3h-29.6c-1.3-7.8-5.5-14.9-11.8-19.8c-6.3-4.8-14.1-7.2-23.6-7.2
		c-10.2-0.2-20,3.9-26.9,11.3c-7.2,7.5-10.8,18.6-10.8,33.2c0,14.6,3.6,25.7,10.7,33.3c6.9,7.5,16.7,11.7,26.9,11.4
		c9.4,0,17.3-2.4,23.6-7.3c6.3-4.9,10.5-12.1,11.8-20h29.6c-2.8,15.7-9.9,28.2-21.3,37.5s-25.8,13.9-43.3,13.9
		c-13,0-24.6-2.8-34.6-8.3c-10-5.5-18.2-13.8-23.6-23.8c-5.7-10.4-8.5-22.6-8.5-36.8c0-13.9,2.9-26.1,8.6-36.5
		c5.4-10.1,13.6-18.4,23.6-23.9c10-5.5,21.5-8.3,34.6-8.3C322.3,414.8,336.7,419.4,348.1,428.6z"/>
	<path class="st2" d="M623.7,443.1c9.5,7.7,15.4,18.1,17.7,31.3h-24.6c-1.1-6.6-4.6-12.5-9.9-16.6c-5.2-4-11.8-6-19.7-6
		c-8.5-0.2-16.6,3.2-22.4,9.5c-6,6.3-9,15.6-9,27.8c0,12.2,3,21.5,9,27.9c5.7,6.3,13.9,9.8,22.4,9.6c7.9,0,14.4-2,19.7-6.1
		c5.3-4.1,8.8-10.1,9.9-16.7h24.6c-2.3,13.2-8.2,23.6-17.7,31.4c-9.5,7.7-21.5,11.6-36,11.6c-10,0.2-20-2.2-28.8-6.9
		c-8.4-4.6-15.2-11.6-19.7-20c-4.8-8.6-7.2-18.8-7.2-30.7s2.4-22,7.1-30.6c4.5-8.4,11.3-15.4,19.7-20c8.9-4.7,18.8-7.1,28.8-6.9
		C602.2,431.6,614.2,435.4,623.7,443.1z M809.4,394.5v150.7h-23.2V394.5H809.4z M915.3,438.6c8.6,4.5,15.7,11.5,20.4,20
		c4.9,8.7,7.3,18.9,7.3,30.6c0,11.7-2.5,21.9-7.3,30.8c-4.7,8.5-11.8,15.4-20.4,20c-9.1,4.7-19.1,7.1-29.3,6.9
		c-10.2,0.2-20.2-2.2-29.2-6.9c-8.6-4.6-15.7-11.6-20.4-20.1c-5-8.8-7.4-19-7.4-30.7c0-11.7,2.5-21.9,7.4-30.6
		c4.7-8.5,11.8-15.4,20.4-20c9-4.7,19.1-7.1,29.2-6.9C896.2,431.4,906.3,433.8,915.3,438.6L915.3,438.6z M869.5,455.9
		c-5.2,2.9-9.4,7.2-12.1,12.5c-3.2,6.4-4.8,13.5-4.6,20.7c0,8.3,1.5,15.2,4.6,20.8c2.7,5.3,6.9,9.6,12.1,12.5
		c10.3,5.4,22.7,5.4,33,0c5.2-2.9,9.4-7.2,12.1-12.5c3-5.5,4.6-12.5,4.6-20.8s-1.5-15.2-4.6-20.7c-2.7-5.3-6.9-9.6-12.1-12.5
		C892.1,450.4,879.8,450.4,869.5,455.9L869.5,455.9z M1092.3,390.7c2.9-2.7,6.8-4.1,10.8-3.9c4-0.2,7.9,1.2,10.9,3.9
		c2.7,2.5,4.3,6.1,4.2,9.8c0.1,3.7-1.4,7.2-4.2,9.6c-3,2.5-6.9,3.9-10.9,3.7c-3.9,0.2-7.8-1.1-10.8-3.7c-2.7-2.4-4.2-5.9-4.1-9.6
		c-0.1-3.7,1.4-7.3,4.1-9.9V390.7z M1114.7,433.1v112.3h-23.2V433.1H1114.7z M1209.4,441.8c7.9,6.7,12.8,15.7,14.6,27h-22
		c-0.7-5.7-3.5-11-7.8-14.8c-4.3-3.7-10-5.5-17-5.5c-5.8,0-10.4,1.4-13.6,4.2c-3.2,2.9-5,7-4.8,11.3c-0.1,3.2,1.1,6.3,3.5,8.6
		c2.5,2.3,5.5,4,8.7,5.1c4.8,1.6,9.8,3,14.8,4.1c7,1.5,13.8,3.4,20.5,5.9c5.2,2,9.9,5.4,13.4,9.7c3.7,4.4,5.5,10.4,5.5,18
		c0.2,8.9-3.7,17.3-10.7,22.8c-7.1,5.8-16.7,8.8-28.8,8.8c-14,0-25.3-3.3-33.9-9.8c-8.6-6.5-13.8-15.7-15.5-27.5h22.6
		c0.5,5.9,3.5,11.3,8.2,14.9c4.8,3.8,11,5.7,18.7,5.7c5.5,0,9.9-1.5,13.1-4.4c3.2-2.8,4.9-6.9,4.8-11.1c0.2-3.5-1.2-6.9-3.7-9.4
		c-2.6-2.4-5.8-4.3-9.2-5.4c-4.9-1.6-10-3-15.1-4c-6.7-1.5-13.4-3.4-19.9-5.7c-5.1-1.9-9.6-5.1-13-9.3c-3.6-4.3-5.4-10.1-5.4-17.4
		c-0.3-9,3.7-17.5,10.7-23.1c7.1-5.9,17-8.9,29.7-8.9C1190.8,431.6,1201.4,434.9,1209.4,441.8L1209.4,441.8z M765,485.6
		c0.1-9.3-2.2-18.4-6.6-26.6c-4.4-7.9-11-14.4-18.9-18.8c-18.1-9.1-39.6-9.1-57.7,0.1c-8.4,4.6-15.2,11.5-19.7,20
		c-4.8,8.7-7.1,18.9-7.1,30.5c0,11.8,2.4,22.1,7.1,30.8c4.5,8.4,11.3,15.3,19.6,19.9c8.9,4.7,18.8,7.1,28.8,6.9
		c8.8,0.1,17.5-1.6,25.5-5.2c14.6-6.4,25.1-19.6,27.9-35.3h-24.9c-1.1,6.3-4.7,12-9.9,15.7c-5.7,4.1-12.6,6.1-19.7,5.9
		c-8.2,0.2-16.2-2.7-22.2-8.3c-6-5.5-9.2-14.1-9.6-25.7h86.4c0.6-3.3,0.9-6.7,0.8-10V485.6z M687.8,460.3c6.3-5.6,14.4-8.6,22.8-8.3
		c5.5-0.1,10.9,1.2,15.8,3.6c4.9,2.4,8.8,6.2,11.4,11c2.2,4.1,3.5,8.6,3.7,13.3h-63.2c1.2-8.4,4.4-15,9.5-19.6V460.3z M1055.4,444.2
		c7.9,8.5,11.8,20.5,11.9,36.2V546h-23.3v-63.3c0-10.1-2.6-17.9-7.8-23.4c-5.2-5.5-12.3-8.3-21.3-8.3c-9.2,0-16.7,3-22.3,8.9
		c-5.6,5.9-8.4,14.6-8.3,26.1v59.9H961V433.3h23.3V458c2.7-8.1,8-15,15.1-19.6c7.3-4.7,15.8-7.1,24.5-6.9c13.1,0,23.5,4.2,31.4,12.7
		V444.2z"/>
</g>
</svg>
