<svg id="illustration" xmlns="http://www.w3.org/2000/svg" viewBox="0 0 400 400"><defs><style>.cls-1,.cls-10,.cls-11,.cls-12,.cls-13,.cls-15,.cls-17,.cls-18,.cls-19,.cls-2,.cls-20,.cls-21,.cls-22,.cls-3,.cls-4,.cls-5,.cls-6,.cls-7,.cls-8,.cls-9{fill-rule:evenodd;}.cls-1,.cls-9{opacity:0.1;}.cls-2{fill:#4f5253;}.cls-3{fill:#858686;}.cls-4{fill:#734d60;}.cls-5{fill:#543042;}.cls-6{fill:#96637c;}.cls-16,.cls-7{fill:#594165;}.cls-8{fill:#c4c4c4;}.cls-23,.cls-9{fill:#2b2b2b;}.cls-10{fill:#cececd;}.cls-11{fill:#9da1a2;}.cls-12{fill:#ececeb;}.cls-13{fill:#9075a0;}.cls-14,.cls-15{fill:#785d88;}.cls-17{fill:#b3889d;}.cls-18{fill:#fde4d5;}.cls-19{fill:#f5cab3;}.cls-20{fill:#c2917d;}.cls-21{fill:#fff0e8;}.cls-22{fill:#a688ba;}</style></defs><title>Architect (INTJ) personality</title><polygon class="cls-1" points="364.98 380.28 324.44 363.91 149.54 359.68 38 383.94 137.87 400 364.98 380.28"/><polygon class="cls-2" points="283.03 348.79 285.21 371.26 300.64 371.2 301.25 350.55 283.03 348.79"/><polygon class="cls-2" points="177.29 348.79 179.47 371.26 194.9 371.2 198.93 350.55 177.29 348.79"/><polygon class="cls-3" points="181.21 378.27 184.15 346.76 154.73 350.17 156.48 379.78 181.21 378.27"/><polygon class="cls-4" points="86.44 258.35 96.77 186.96 73.76 173.55 54.59 225.02 86.44 258.35"/><polygon class="cls-5" points="54.59 225.02 89.38 223.96 92.83 244.66 86.08 266.71 54.59 225.02"/><polygon class="cls-4" points="202.17 185.5 216.11 230.92 213.27 248.78 193.49 266.03 177.95 215.95 182.68 171.96 202.17 185.5"/><polygon class="cls-6" points="202.74 209.24 193.49 266.03 232.03 250.7 220.58 211.07 213.1 205.83 202.74 209.24"/><polygon class="cls-6" points="145.48 195.7 164.92 167.66 187.49 174.85 193.49 266.03 137.86 272.37 86.08 266.71 92.41 188.43 104.33 178.98 110.09 163.02 145.48 195.7"/><polygon class="cls-7" points="167.07 185.45 202.74 187.34 199.36 175.88 166.7 171.56 167.07 185.45"/><polygon class="cls-3" points="323.59 379.78 324.44 350.74 297.2 346.76 297.72 379.78 323.59 379.78"/><polygon class="cls-3" points="324.44 354.15 324.72 339.65 245.76 307.3 155.68 333.05 156.37 354.15 324.44 354.15"/><polygon class="cls-8" points="316.76 339.65 161.55 334.81 247.64 315.61 316.76 339.65"/><polygon class="cls-1" points="249.52 331.92 157.27 359.99 162.78 349.23 206.58 333.76 249.52 331.92"/><polygon class="cls-9" points="249.52 323.93 249.52 331.92 324.38 352.69 324.72 339.65 249.52 323.93"/><polygon class="cls-10" points="162.78 349.23 249.52 331.92 253.88 321.78 248.13 311.35 165.52 320.65 162.78 349.23"/><polygon class="cls-11" points="247.64 315.61 165.52 320.65 170.63 281.05 194.61 287.06 244.08 299.52 248.13 308.27 247.64 315.61"/><polygon class="cls-8" points="244.08 299.52 247.64 315.61 280.08 319.18 317.46 310.06 328.54 281.05 244.08 299.52"/><polygon class="cls-12" points="247.64 315.61 249.52 331.92 347.06 342.56 317.46 310.06 247.64 315.61"/><polygon class="cls-1" points="317.46 310.06 304.3 319.83 284.75 312.66 317.46 310.06"/><polygon class="cls-13" points="300.01 280.85 280.08 291.65 301.72 302.45 300.01 280.85"/><rect class="cls-14" x="300.01" y="280.85" width="4.29" height="34.86"/><polygon class="cls-1" points="275.49 319.18 260.53 326.79 248.13 319.83 275.49 319.18"/><polygon class="cls-13" points="260.53 287.81 244.08 299.52 262.24 309.41 260.53 287.81"/><rect class="cls-14" x="260.53" y="287.81" width="4.29" height="34.86"/><polygon class="cls-1" points="237.15 309.59 222.09 314.76 205.08 301.74 237.15 309.59"/><polygon class="cls-13" points="222.35 275.78 203.99 289.44 224.06 297.38 222.35 275.78"/><rect class="cls-14" x="222.35" y="275.78" width="4.29" height="34.86"/><polygon class="cls-4" points="194.61 287.06 137.87 309.37 137.87 341.59 151.88 348.48 171.64 331.92 194.61 287.06"/><polygon class="cls-5" points="171.64 331.92 137.87 341.59 133.85 365.05 146.31 365.05 157.27 359.99 171.64 331.92"/><polygon class="cls-6" points="137.87 341.59 142.45 314.87 123.55 297.94 85.44 281.05 96.35 336.25 118.15 350.17 137.87 341.59"/><polygon class="cls-5" points="194.61 287.06 142.45 314.87 85.44 281.05 146.31 281.02 194.61 287.06"/><polygon class="cls-4" points="96.35 336.25 137.87 341.59 133.85 365.05 118.15 369.13 102.61 367.93 96.35 336.25"/><polygon class="cls-15" points="132.93 378.27 152.75 380.06 181.21 378.27 157.27 359.99 133.85 365.05 132.93 378.27"/><rect class="cls-16" x="132.93" y="378.27" width="48.28" height="6.8"/><polygon class="cls-13" points="133.85 365.05 143.04 385.08 121.33 387.16 99.62 385.08 102.61 367.93 133.85 365.05"/><rect class="cls-16" x="99.62" y="385.08" width="43.41" height="6.8"/><polygon class="cls-4" points="167.9 236.65 174.02 266.15 112.06 266.54 117.49 244.66 129.7 210.37 145.48 195.7 159.16 210.37 167.9 236.65"/><polygon class="cls-7" points="125.49 177.24 83.11 191.58 73.76 173.55 113.5 161.89 125.49 177.24"/><polygon class="cls-17" points="113.5 161.89 117.49 244.66 145.48 195.7 113.5 161.89"/><polygon class="cls-17" points="145.48 195.7 167.9 236.65 166.7 171.56 145.48 195.7"/><polygon class="cls-17" points="147.87 219.95 151.88 227.29 144.53 232.3 139.19 224.62 147.87 219.95"/><polygon class="cls-17" points="147.54 242.65 140.19 247.32 145.87 254.67 152.21 249.99 147.54 242.65"/><polygon class="cls-7" points="86.08 266.71 131.06 266.42 146.2 270.22 161.55 266.23 193.49 266.03 194.61 287.06 160.51 285.18 149.11 282.93 131.17 283.57 85.44 281.05 86.08 266.71"/><path class="cls-17" d="M161.55,266.23l-30.49.19.11,17.15,29.34,1.61,1-18.95Zm-7.67,12.82H137.52l.34-6.68,16.35-.67Z"/><polygon class="cls-1" points="145.48 195.7 188.66 175.21 166.7 171.56 145.48 195.7"/><polygon class="cls-7" points="99 113.43 109.99 110.48 127.79 123.97 116.48 134.62 87.48 137.47 99 113.43"/><polygon class="cls-18" points="237.15 72.57 231.66 98.7 206.71 178.68 166.7 171.56 145.48 195.7 121.13 155.75 131.66 112.43 138.73 109.46 142.79 88.97 141.3 58.1 175.95 40.59 208.74 59.55 215.57 41.87 237.15 72.57"/><polygon class="cls-19" points="142.56 58.6 162.52 96.68 157.89 173.23 145.48 195.7 113.5 161.89 116.48 134.62 119.15 128.75 119.12 122.89 107.64 121.35 107.82 94.48 125.2 94.41 131.66 109.92 137.22 110.46 141.79 89.22 142.56 58.6"/><polygon class="cls-19" points="221.07 107.22 162.52 96.68 177.95 112.75 185.99 139.76 221.07 107.22"/><polygon class="cls-20" points="159.16 152.25 187.89 161.9 208.49 159.69 189.15 149.6 159.16 152.25"/><polygon class="cls-15" points="159.16 152.25 185.99 139.76 197.88 142.01 208.49 159.69 159.16 152.25"/><polygon class="cls-21" points="194.61 102.46 185.99 139.76 197.88 142.01 203.99 104.15 194.61 102.46"/><polygon class="cls-15" points="162.52 96.68 221.07 107.22 222.94 99.64 166.43 92.82 162.52 96.68"/><polygon class="cls-7" points="197.89 141.95 190.84 145.55 185.99 139.76 197.89 141.95"/><polygon class="cls-20" points="112.52 100.16 121.28 100.41 123.42 117.73 112.52 100.16"/><polygon class="cls-20" points="166.7 171.56 138.52 166.52 145.48 195.7 166.7 171.56"/><polygon class="cls-20" points="119.12 122.89 126.68 123.97 116.48 134.62 119.12 122.89"/><polygon class="cls-22" points="235.14 72.32 242 61.17 256.5 51.58 231.66 98.7 235.14 72.32"/><polygon class="cls-13" points="142.56 58.6 122.28 46.71 89.23 36.56 95.45 85.46 123.61 89.55 146.81 89.22 142.56 58.6"/><polygon class="cls-15" points="235.14 72.32 215.68 48.39 204.02 37.42 192.08 19.37 256.5 51.58 235.14 72.32"/><polygon class="cls-15" points="142.56 58.6 177.95 45.85 157.57 28.57 131.02 18.22 89.23 36.56 142.56 58.6"/><polygon class="cls-13" points="192.08 19.37 153.34 0 131.02 18.22 177.95 45.85 211.25 65.07 215.68 48.39 192.08 19.37"/><polygon class="cls-15" points="146.81 89.22 95.45 85.46 99 113.43 107.64 121.35 108.95 95.61 125.2 96.68 129.38 113.94 139.23 112.47 146.81 89.22"/><circle class="cls-23" cx="210.47" cy="120.1" r="4.59"/><circle class="cls-23" cx="178.14" cy="113.89" r="4.59"/><polygon class="cls-20" points="195.89 201.7 202.74 209.24 209.29 210.12 216.11 188.54 196 191.58 195.89 201.7"/><polygon class="cls-19" points="232.71 187.03 220.58 211.07 202.74 209.24 216.11 188.54 220.58 183.63 232.71 187.03"/><polygon class="cls-21" points="193.49 176.33 209.87 168.55 232.71 187.03 216.11 188.54 202.17 185.5 193.49 176.33"/><polygon class="cls-18" points="216.11 188.54 202.74 195.93 188.26 186.57 193.49 176.33 216.11 188.54"/></svg>




