<svg id="role_analysts" xmlns="http://www.w3.org/2000/svg" viewBox="0 0 130 130"><defs><style>.cls-1{fill:#6d4e7c;}.cls-2{fill:#dcdee1;}.cls-3{fill:#9e80ac;}.cls-4{fill:#9471a3;}.cls-5{fill:#8e699e;}.cls-6{fill:#b69fc0;}.cls-7{fill:#c3b0cb;}.cls-8{fill:#876299;}.cls-16,.cls-9{fill:#e6dee9;}.cls-10{fill:#f2edf4;}.cls-11{fill:#ab8fb7;}.cls-12{fill:#745383;}.cls-13,.cls-22{fill:#fbfafb;}.cls-13{opacity:0.5;}.cls-14{fill:#b2869c;}.cls-15{fill:#95647c;}.cls-16{opacity:0.7;}.cls-17{fill:#cebed5;}.cls-18{fill:#d1a1b8;}.cls-19{fill:#734e62;}.cls-20{fill:#dacedf;}.cls-21{fill:#815d91;}</style></defs><polygon class="cls-1" points="27.71 19.21 65.84 2.68 102.31 20.36 85.99 113.15 65.38 121.72 42.25 112.14 27.71 19.21"/><polygon class="cls-2" points="43.42 28.57 43.61 26.68 44.52 28.24 46.66 27.59 45.11 29.09 46.15 30.58 44.46 29.73 43.74 31.36 43.61 29.8 41.73 29.48 43.42 28.57"/><polygon class="cls-2" points="52.22 20.67 52.48 19.18 53.19 20.74 54.56 20.67 53.65 21.52 53.97 23.01 52.8 21.78 51.63 22.88 52.02 21.65 50.92 20.67 52.22 20.67"/><polygon class="cls-2" points="80.35 25.48 80.25 22.85 82.1 24.8 84.05 23.92 83.08 25.87 85.22 27.72 82.1 27.23 81.32 29.67 80.64 27.04 78.01 26.75 80.35 25.48"/><polygon class="cls-3" points="66.67 4.18 27.71 19.21 30.02 24.42 65 10.16 66.67 4.18"/><polygon class="cls-4" points="65 5.96 102.31 20.36 100 24.42 65 10.16 65 5.96"/><polygon class="cls-5" points="41.14 117.43 65 129.5 68.67 123.03 57.06 118.39 41.8 109.73 41.14 117.43"/><polygon class="cls-3" points="24.5 17.16 22.84 23.7 41.14 117.43 42.25 112.14 42.25 100.4 28.33 21.53 24.5 17.16"/><polygon class="cls-6" points="24.5 17.16 42.25 112.14 45 111.63 45.44 109.73 31.37 21.53 30.11 18.72 24.5 17.16"/><polygon class="cls-7" points="45.44 109.73 65 118.07 66.91 121.17 65 125.12 42.25 112.14 45.44 109.73"/><polygon class="cls-7" points="65 5.96 31.37 21.53 24.5 17.16 65 0.5 66.11 3.7 65 5.96"/><polygon class="cls-8" points="88.86 117.43 65 129.5 65.01 125.12 72.95 118.39 88.21 109.73 88.86 117.43"/><polygon class="cls-3" points="105.51 17.16 107.17 23.7 88.86 117.43 87.76 112.14 87.76 100.4 101.68 21.53 105.51 17.16"/><polygon class="cls-7" points="105.51 17.16 87.76 112.14 85.01 111.63 84.57 109.73 98.64 21.53 99.89 18.72 105.51 17.16"/><polygon class="cls-6" points="84.57 109.73 65.01 118.07 65.01 125.12 87.76 112.14 84.57 109.73"/><polygon class="cls-6" points="65 5.96 98.64 21.53 105.51 17.16 65 0.5 65 5.96"/><polygon class="cls-8" points="53 86.76 27.71 90.46 17.17 50.34 20.97 49.45 54.02 47.7 53 86.76"/><polygon class="cls-9" points="23.21 37.28 22.08 43.42 22.05 45.06 21.74 45.28 20.97 49.45 30.62 86.12 34.42 79.74 30.33 55.44 23.21 37.28"/><polygon class="cls-7" points="32.67 79.74 45.47 74.5 65 80.98 30.62 86.12 32.67 79.74"/><polygon class="cls-10" points="50.23 40.31 38.8 33.86 23.21 37.28 32.67 79.74 45.47 77.05 65 79.07 50.23 40.31"/><polygon class="cls-7" points="38.8 33.86 46.41 46.75 51.56 37.28 38.8 33.86"/><polygon class="cls-11" points="31.86 82.26 39.97 81.75 31.56 83.2 30.02 76.15 31.86 82.26"/><polygon class="cls-11" points="22.08 43.42 24.61 54.45 21.74 45.28 22.08 43.42"/><polygon class="cls-11" points="53.8 58.8 34.69 63.09 34.94 64.07 54.02 59.79 53.8 58.8"/><polygon class="cls-11" points="32.99 56.41 33.24 57.4 52.62 53.05 52.4 52.05 32.99 56.41"/><polygon class="cls-11" points="36.49 70.18 36.75 71.16 55.67 66.92 55.45 65.92 36.49 70.18"/><polygon class="cls-11" points="42.62 40.33 29.62 43.18 29.87 44.17 43.2 41.31 55.97 44.93 56.24 43.95 42.62 40.33"/><polygon class="cls-11" points="31.35 49.99 31.6 50.97 46.86 47.67 46.41 46.75 31.35 49.99"/><polygon class="cls-8" points="76.99 86.76 102.28 90.46 112.82 50.34 109.02 49.45 75.97 47.7 76.99 86.76"/><polygon class="cls-7" points="106.78 37.28 107.91 43.42 107.83 45.01 108.25 45.28 109.02 49.45 99.38 86.12 95.58 79.74 99.67 55.44 106.78 37.28"/><polygon class="cls-11" points="97.33 79.74 84.53 74.5 65 80.98 99.38 86.12 97.33 79.74"/><polygon class="cls-9" points="79.76 40.31 91.19 33.86 106.78 37.28 97.33 79.74 84.53 77.05 65 79.07 79.76 40.31"/><polygon class="cls-10" points="91.19 33.86 83.59 46.75 78.44 37.28 91.19 33.86"/><polygon class="cls-3" points="98.14 82.26 90.02 81.75 98.44 83.2 99.97 76.15 98.14 82.26"/><polygon class="cls-3" points="107.91 43.42 105.39 54.45 108.25 45.28 107.91 43.42"/><polygon class="cls-11" points="76.2 58.8 95.31 63.09 95.05 64.07 75.97 59.79 76.2 58.8"/><polygon class="cls-11" points="97.01 56.41 96.75 57.4 77.37 53.05 77.6 52.05 97.01 56.41"/><polygon class="cls-11" points="93.5 70.18 93.25 71.16 74.32 66.92 74.54 65.92 93.5 70.18"/><polygon class="cls-11" points="87.38 40.33 100.38 43.18 100.12 44.17 86.8 41.31 74.03 44.93 73.76 43.95 87.38 40.33"/><polygon class="cls-11" points="98.64 49.99 98.39 50.97 83.14 47.67 83.59 46.75 98.64 49.99"/><polygon class="cls-12" points="32.05 103.06 35.22 102.58 37 99.67 33.48 99.42 32.05 103.06"/><polygon class="cls-4" points="16.88 71.65 20.97 87.2 30.02 82.45 28.9 72.64 23.7 67.74 16.88 71.65"/><polygon class="cls-9" points="21.88 68 27.01 86.79 30.02 82.45 28.9 72.64 23.7 67.74 21.88 68"/><polygon class="cls-13" points="9.94 81.05 11.09 71.16 19.18 67.14 25.2 69.08 29.31 73.81 30.02 82.45 23.95 87.91 12.01 85.23 9.94 81.05"/><polygon class="cls-14" points="13.28 76.19 16.88 71.65 19.66 69.58 22.84 71.89 28.13 76.79 30.02 73.39 23.7 67.74 13.99 67.74 8.82 75.69 10.58 84.1 13.15 84.87 13.28 76.19"/><polygon class="cls-15" points="22.23 69.58 22.84 71.89 16.88 71.65 15.52 69.59 17.17 67.14 22.23 69.58"/><polygon class="cls-14" points="7.42 84.98 10.33 90.04 16.92 94.36 22.09 92.59 27.7 93.67 32.88 87.84 33.51 82.86 22.53 89.21 13.76 86.92 7.42 84.98"/><polygon class="cls-15" points="16.47 91.6 16.92 94.36 27.7 93.67 27.71 90.46 22.84 88.61 16.47 91.6"/><polygon class="cls-16" points="16.21 77.58 16.13 75.38 17.52 74.07 19.76 74.78 20.06 77 18.66 78.41 16.21 77.58"/><polygon class="cls-17" points="27.71 91.36 26.99 92.89 29.02 95.81 30.47 94.86 27.71 91.36"/><polygon class="cls-11" points="27.71 91.36 29.06 91.22 31.33 94.24 30.02 95.05 27.71 91.36"/><polygon class="cls-3" points="29.32 93.93 27.7 96.55 32.05 103.06 33.98 100.72 32.8 97.18 29.32 93.93"/><polygon class="cls-8" points="29.32 93.93 32.22 93.39 37 99.67 33.98 100.72 29.32 93.93"/><polygon class="cls-15" points="13.28 76.19 14.31 85.23 9.94 83.2 9.57 74.2 11.09 75.01 13.28 76.19"/><path class="cls-18" d="M32.73,71.52,25,64.76l-11.84-.23-7.33,9L7.42,85l9,6.62,11.24-1.14,5.8-7.6Zm-8,13.71L17.66,86l-5.6-4-1-7,4.43-5.42h6.71l4.92,3.79,1.18,7.3Z"/><polygon class="cls-12" points="100.69 98.81 100.1 101.83 104.8 103.63 106.59 99.31 100.69 98.81"/><polygon class="cls-14" points="123.65 73.9 121.88 81.29 116.62 87.94 115.09 86.31 112.79 87.53 108.65 93.25 105.44 91.63 104.02 88.67 110.13 81.29 116.11 78.6 123.65 73.9"/><polygon class="cls-14" points="104.53 65.14 104.53 70.63 106.3 75.18 112.18 73.42 117.79 75.09 118.86 71.76 115.03 67.01 104.53 65.14"/><polygon class="cls-15" points="113.09 69.68 112.18 73.42 116.57 76.96 118.86 72.17 113.09 69.68"/><polygon class="cls-15" points="107.02 71.75 106.3 75.18 103.4 70.83 103.14 65.14 107.73 67.98 107.02 71.75"/><polygon class="cls-15" points="117.38 83.41 116.62 87.94 112.79 87.53 112 83.41 114.69 81.76 117.38 83.41"/><polygon class="cls-15" points="107.99 89.63 108.65 93.25 104.91 92.36 104.02 88.67 106.59 87.94 107.99 89.63"/><polygon class="cls-18" points="103.14 65.14 116.36 63.18 123.65 73.9 117.38 83.41 112 83.41 107.99 89.63 104.02 88.67 107.49 79.03 114.09 77.66 116.84 72.17 113.09 69.68 107.02 71.75 103.14 65.14"/><polygon class="cls-8" points="107.73 95.75 108.19 99.94 104.8 103.63 105.14 100.3 105.44 98.41 107.73 95.75"/><polygon class="cls-3" points="102.54 93.97 107.73 95.75 105.14 100.3 100.69 98.81 102.54 93.97"/><polygon class="cls-7" points="81.04 91.49 82.32 98.04 78.31 104.07 74.78 98.26 75.48 93.14 81.04 91.49"/><polygon class="cls-3" points="77.27 96.55 77.84 100.55 80.73 97.18 78.39 92.85 77.27 96.55"/><polygon class="cls-7" points="48.97 91.49 47.69 98.04 51.69 104.07 55.23 98.26 54.53 93.14 48.97 91.49"/><polygon class="cls-3" points="52.74 96.55 52.16 100.55 49.28 97.18 51.62 92.85 52.74 96.55"/><polygon class="cls-7" points="68.4 100.59 65.8 100.59 65 104.61 64.2 100.59 61.59 100.59 60.3 105.31 65 112.11 69.69 105.31 68.4 100.59"/><polygon class="cls-3" points="66.45 102.9 65.8 102.19 65 104.61 64.2 102.19 63.55 102.9 62.51 105.48 65 108.6 67.48 105.48 66.45 102.9"/><polygon class="cls-19" points="52.73 96.55 65 88.71 49.56 71.65 48.55 83.2 52.73 96.55"/><polygon class="cls-14" points="52.73 76.98 48.55 75.69 45.47 77.05 44.38 90.73 52.73 96.55 51.97 90.62 52.73 76.98"/><polygon class="cls-18" points="45.47 77.05 50.59 79.74 51.56 75.69 49.56 71.65 45.47 77.05"/><polygon class="cls-19" points="77.27 96.55 65 88.71 80.44 71.65 81.44 83.2 77.27 96.55"/><polygon class="cls-15" points="77.27 76.98 81.44 75.69 84.53 77.05 85.62 90.73 77.27 96.55 78.02 90.62 77.27 76.98"/><polygon class="cls-14" points="84.53 77.05 79.41 79.74 78.44 75.69 80.44 71.65 84.53 77.05"/><polygon class="cls-20" points="65.84 18.05 68.62 51.2 65 98.81 55.47 85.23 46.41 46.75 51.56 37.28 65.84 18.05"/><polygon class="cls-6" points="66.8 20.71 65 40.79 65 98.81 74.46 88.24 83.59 46.75 78.44 37.28 66.8 20.71"/><polygon class="cls-4" points="65 12.57 54.86 31.21 65.28 36.26 67.03 25.87 65 12.57"/><polygon class="cls-21" points="65 12.57 75.13 31.21 70.91 34.83 65 34.83 65 12.57"/><polygon class="cls-18" points="51.56 37.28 65 40.79 66.97 37.11 65 34.83 54.86 31.21 51.56 37.28"/><polygon class="cls-15" points="78.44 37.28 65 40.79 65 34.83 75.13 31.21 78.44 37.28"/><polygon class="cls-22" points="60.39 36.59 61.95 35.47 62.87 37.3 61.17 38.15 60.39 36.59"/><polygon class="cls-22" points="56.99 34.12 57.9 35.84 56.38 36.59 55.47 35.13 56.99 34.12"/><polygon class="cls-20" points="67.75 36.85 68.72 35.09 70.05 36.26 69.4 37.76 67.75 36.85"/><polygon class="cls-20" points="72.36 35.55 73.1 33.86 74.66 34.74 74.05 36.59 72.36 35.55"/><polygon class="cls-22" points="65 45.28 52.73 57.74 65 68.16 66.51 56.14 65 45.28"/><polygon class="cls-20" points="65 45.28 77.27 57.74 65 68.16 65 45.28"/><polygon class="cls-7" points="46.41 46.75 65 79.07 57.9 79.07 49.56 71.65 46.41 46.75"/><polygon class="cls-3" points="83.59 46.75 65 79.07 73.51 79.07 80.44 71.65 83.59 46.75"/><polygon class="cls-4" points="49.56 71.65 65 79.07 67.75 86.82 65 98.81 51.96 90.62 49.56 71.65"/><polygon class="cls-21" points="65 79.07 80.44 71.65 78.04 90.62 65 98.81 65 79.07"/><polygon class="cls-1" points="65 50.37 59.09 57.74 65 63.07 70.91 57.74 67.91 54 67.4 53.96 67.14 53.05 65 50.37"/><polygon class="cls-3" points="55.53 57.77 56.34 56.92 57.06 57.77 56.28 58.55 55.53 57.77"/><polygon class="cls-3" points="58.27 60.34 59.15 59.59 59.73 60.34 59.02 61.22 58.27 60.34"/><polygon class="cls-3" points="61.32 62.97 62.14 62.06 62.85 62.97 62.04 63.85 61.32 62.97"/><polygon class="cls-3" points="58.26 54.67 59.08 53.7 59.82 54.55 59.04 55.36 58.26 54.67"/><polygon class="cls-3" points="61.16 51.3 61.88 52.04 62.59 51.39 61.88 50.52 61.16 51.3"/><polygon class="cls-3" points="74.46 57.77 73.65 56.92 72.94 57.77 73.72 58.55 74.46 57.77"/><polygon class="cls-3" points="71.73 60.34 70.85 59.59 70.27 60.34 70.98 61.22 71.73 60.34"/><polygon class="cls-3" points="68.67 62.97 67.86 62.06 67.14 62.97 67.96 63.85 68.67 62.97"/><polygon class="cls-3" points="71.73 54.67 70.92 53.7 70.17 54.55 70.95 55.36 71.73 54.67"/><polygon class="cls-3" points="68.83 51.3 68.12 52.04 67.4 51.39 68.12 50.52 68.83 51.3"/><polygon class="cls-3" points="65 47.7 64.17 48.51 65 49.45 65.84 48.57 65 47.7"/><polygon class="cls-3" points="65 64.63 64.17 65.45 65 66.39 65.84 65.51 65 64.63"/><polygon class="cls-5" points="64.61 53.7 62.31 59.48 66.8 52.61 64.61 53.7"/><polygon class="cls-5" points="67.14 53.05 62.85 61.14 65.38 59.59 67.91 54 67.14 53.05"/><polygon class="cls-14" points="65.29 81.05 60.72 85.07 58.26 100.4 65 105.09 67.14 93.5 65.29 81.05"/><polygon class="cls-15" points="65 79.07 66.12 83.2 69.28 85.07 71.73 100.4 65 105.09 65 79.07"/><polygon class="cls-18" points="60.72 85.07 65 87.32 66.12 84.1 65 79.07 60.72 85.07"/><polygon class="cls-14" points="65 79.07 69.28 85.07 65 87.32 65 79.07"/></svg>