<svg id="strategy_confident_individualism_analysts" xmlns="http://www.w3.org/2000/svg" viewBox="0 0 130 130"><defs><style>.cls-1{fill:#f3eff5;}.cls-2{fill:#ab90b8;}.cls-3{fill:#b7a0c2;}.cls-4{fill:#cfbfd6;}.cls-5{fill:#fff;}.cls-6{fill:#e7dfea;}.cls-7{fill:#6c4d7b;}.cls-8{fill:#9471a4;}.cls-9{fill:#7a578a;}.cls-10{fill:#b3889d;}.cls-11{fill:#d1a1b8;}.cls-12{fill:#88619a;}.cls-13{fill:#cccfd4;}.cls-14{fill:#1d2432;opacity:0.2;}.cls-15{fill:#815c92;}.cls-16{fill:#9f80ae;}.cls-17{fill:#545c6d;}.cls-18{fill:#404857;}.cls-19{fill:#96637c;}.cls-20{fill:#735283;}.cls-21{fill:#68707f;}.cls-22{fill:#89909b;}.cls-23{fill:#583f64;}.cls-24{fill:#654873;}.cls-25{fill:#9a9fa9;}.cls-26{fill:#787f8d;}.cls-27{fill:#8e699f;}</style></defs><polygon class="cls-1" points="28.33 63.87 32.17 18.54 38.78 10.89 46.72 8.26 60.44 8.13 79.23 8.66 92.53 13.1 98.37 32.89 99.68 57.47 99.68 100.35 93 120.04 54.05 112.77 33.56 114.6 28.33 98 28.33 63.87"/><polygon class="cls-2" points="85.31 78.34 97.84 74.67 96.86 102.92 86.03 98 80.28 93.3 85.31 78.34"/><polygon class="cls-3" points="60.59 82.18 56.7 89.42 88.14 87.88 91.89 79.39 88.14 75.08 83.53 74.05 78.22 70.61 60.59 82.18"/><polygon class="cls-2" points="60.59 82.18 60.37 93.72 79.22 84.61 83.11 75.09 78.22 72.71 60.59 82.18"/><polygon class="cls-4" points="28.33 72.14 36.87 69.27 42.34 72.14 42.34 75.51 38.73 81.14 29.27 86.21 28.33 72.14"/><polygon class="cls-3" points="37.6 79.27 28.96 84.14 33.56 114.6 45.1 92.3 44.27 87.88 45.1 77.89 37.6 79.27"/><polygon class="cls-4" points="54.05 65.94 67.46 69.98 78.22 72.21 61.74 84.01 48.6 69.98 54.05 65.94"/><polygon class="cls-2" points="41.28 80.33 44.27 87.88 54.93 91.92 58.92 92.3 61.74 84.01 57.29 76.93 48.6 69.98 41.28 80.33"/><polygon class="cls-5" points="28.96 69.98 39.95 50.71 41.28 64.62 28.96 69.98"/><polygon class="cls-6" points="39.95 50.71 54.05 65.94 44.27 66.77 39.21 64.09 39.95 50.71"/><polygon class="cls-1" points="39.21 64.09 38.73 69.98 36.03 71.12 32.64 72.14 28.96 69.98 39.21 64.09"/><polygon class="cls-1" points="39.21 64.09 38.73 69.98 42.34 72.14 37.6 79.27 41.28 80.33 45.83 72.86 54.05 65.94 39.21 64.09"/><polygon class="cls-5" points="39.21 64.09 36.03 71.12 42.34 72.14 39.21 64.09"/><polygon class="cls-6" points="42.34 72.14 54.05 65.94 41.28 80.33 42.34 72.14"/><polygon class="cls-2" points="41.28 95.96 27.27 99.83 33.56 114.6 39.95 104.59 41.28 95.96"/><polygon class="cls-6" points="87.62 57.47 93.64 66.77 89.06 70.61 83.11 75.09 82.08 65.16 87.62 57.47"/><polygon class="cls-5" points="87.62 57.47 83.11 75.09 78.24 72.67 70.36 68.76 87.62 57.47"/><polygon class="cls-1" points="93.64 66.77 92.53 73.32 83.11 75.09 93.64 66.77"/><polygon class="cls-6" points="91.89 72.74 93.64 66.77 98.99 63.87 98.99 70.18 97.84 74.67 92.53 74.67 91.89 72.74"/><polygon class="cls-5" points="83.11 75.09 91.89 79.39 97.84 74.67 91.89 72.74 83.11 75.09"/><polygon class="cls-3" points="36.03 71.12 28.96 79.39 28.96 69.98 36.03 71.12"/><polygon class="cls-7" points="32.64 105.65 30.11 109.58 33.56 114.6 40.16 116.87 45.1 115.66 50.2 103.96 32.64 105.65"/><polygon class="cls-8" points="47.09 106.21 61.77 108.61 58.32 116.87 50.2 119.38 45.1 115.66 47.09 106.21"/><polyline class="cls-7" points="58.92 111.62 74.7 105.65 74.5 118.35 67.22 120.04 58.32 116.87"/><polygon class="cls-9" points="71.85 108.61 86.6 105.65 85.75 119.38 79.23 120.04 74.5 118.35 71.85 108.61"/><polygon class="cls-7" points="95.23 99.18 98.99 107.81 93 120.04 88.03 120.2 85.75 119.38 81.66 109.58 83.95 103.96 95.23 99.18"/><polygon class="cls-10" points="71.65 101.69 81.66 98.34 91.1 96.26 95.23 99.18 81.66 109.58 71.85 108.61 71.65 101.69"/><polygon class="cls-11" points="41.28 95.96 32.64 105.65 47.09 106.21 56.34 104.55 60.37 101.69 49.24 94.97 41.28 95.96"/><polygon class="cls-10" points="60.37 101.69 47.09 106.21 58.92 111.62 71.85 108.61 67.46 103.96 60.37 101.69"/><polygon class="cls-11" points="82.35 100.73 71.85 108.61 60.37 101.69 71.65 98.98 82.35 100.73"/><polygon class="cls-8" points="44.27 87.88 41.28 95.96 48.99 95.96 52.89 92.11 44.27 87.88"/><polygon class="cls-12" points="49.92 92.3 48.99 95.96 60.37 101.69 64.65 94.31 49.92 92.3"/><polygon class="cls-9" points="61.25 95.42 82.94 94.31 82.35 100.73 60.37 101.69 61.25 95.42"/><polygon class="cls-7" points="88.14 87.88 91.1 96.26 82.35 100.73 80.96 95.96 82.94 90.54 88.14 87.88"/><polygon class="cls-10" points="44.27 87.88 49.56 87.55 51.22 87.21 51.88 87.41 69.36 86.33 68.54 93.03 61.25 95.42 49.92 92.3 44.27 87.88"/><polygon class="cls-11" points="69.36 86.33 79.22 84.61 88.14 87.88 80.96 95.96 61.25 95.42 69.36 86.33"/><polygon class="cls-13" points="39.95 4.95 38.78 10.89 60.44 8.13 39.95 4.95"/><polygon class="cls-13" points="18.59 113.23 33.56 114.6 28.33 63.87 18.59 113.23"/><polygon class="cls-13" points="104.22 14.92 92.53 13.1 99.68 57.47 104.22 14.92"/><polygon class="cls-13" points="23.07 12.9 28.33 63.87 38.78 10.89 23.07 12.9"/><polygon class="cls-13" points="109.41 117.89 99.68 57.47 93 120.04 109.41 117.89"/><polygon class="cls-13" points="34.91 127.65 93 120.04 33.56 114.6 34.91 127.65"/><polygon class="cls-13" points="91.1 4.21 60.44 8.13 92.53 13.1 91.1 4.21"/><polygon class="cls-14" points="51.96 88.96 63.8 92.57 73.94 90.54 77.85 88.8 81.96 90.07 88.14 87.88 79.22 84.61 69.36 86.33 61.76 86.8 51.96 88.96"/><polygon class="cls-15" points="58.32 64.09 59.81 76.22 63.9 78.71 67.46 69.98 62.86 62.51 58.32 64.09"/><polygon class="cls-15" points="70.06 69.38 71.85 79.77 75.54 83.41 78.68 77.89 77.85 67.58 73.83 65.94 70.06 69.38"/><polygon class="cls-16" points="77.85 67.58 71.85 79.77 67.46 69.98 72.66 65.94 77.85 67.58"/><polygon class="cls-17" points="78.68 77.89 71.85 79.77 74.64 84.14 79.22 84.61 78.68 77.89"/><polygon class="cls-18" points="71.85 79.77 79.22 84.61 76.68 86.21 74.4 85.45 71.85 79.77"/><polygon class="cls-10" points="37.06 19.61 27.27 22.8 35.17 29.18 36.91 24.39 37.06 19.61"/><polygon class="cls-11" points="40.97 15.75 37.06 19.61 35.17 29.18 39.95 27.64 41.58 23.02 40.97 15.75"/><polygon class="cls-19" points="50.2 37.02 51.51 37.46 51.13 39.73 49.8 40.32 48.87 38.55 50.2 37.02"/><polygon class="cls-20" points="49.62 46.33 58.74 51.09 61 50.38 59.73 43.18 49.62 46.33"/><polygon class="cls-3" points="62.08 33.68 56.34 41.37 56.34 43.18 59.73 45.32 63.03 42.76 62.08 33.68"/><polygon class="cls-18" points="75.49 33.13 80.66 32.01 77.62 26.88 75.76 28.74 75.49 33.13"/><polygon class="cls-21" points="70.06 37.12 63.68 31.55 66.11 28.26 70.06 31.96 70.06 37.12"/><polygon class="cls-22" points="59.54 12.46 56.08 15.66 60.42 16.59 59.54 12.46"/><polygon class="cls-17" points="56.08 15.66 58.79 20.82 60.42 15.22 56.08 15.66"/><polygon class="cls-23" points="81.45 5.44 84.77 9.5 81.9 11.46 80.16 8.19 81.45 5.44"/><polygon class="cls-24" points="81.45 5.44 82.44 18.61 73.49 11.36 74.02 8.56 81.45 5.44"/><polygon class="cls-20" points="60.44 8.13 74.02 2.35 81.45 5.44 75.1 10.4 66.11 11.36 60.44 8.13"/><polygon class="cls-10" points="65.15 26.94 69.82 29.18 74.19 31.07 76.32 30.66 77.67 29.18 77.62 26.88 76.32 16.36 73.13 14.53 65.15 26.94"/><polygon class="cls-11" points="59.54 12.46 56.7 26.05 66.11 28.26 69.82 29.18 73.13 14.53 66.72 12.46 59.54 12.46"/><polygon class="cls-19" points="61.21 16.28 69.36 17.7 65.69 18 63.85 23.02 64.19 17.7 61.21 16.28"/><polygon class="cls-19" points="66.11 28.26 74.04 30.13 71.39 32.26 67.99 32.26 66.11 28.26"/><polygon class="cls-20" points="76.32 30.66 74.04 30.13 67.99 32.26 69.51 35.65 75.49 33.13 76.32 30.66"/><polygon class="cls-16" points="59.54 12.46 60.44 8.13 75.1 10.4 75.17 13.01 73.13 14.53 59.54 12.46"/><polygon class="cls-12" points="73.13 14.53 82.91 24.43 81.4 18.61 79.1 14.78 75.1 10.4 73.13 14.53"/><polygon class="cls-25" points="79.1 14.78 75.17 16.59 80.16 20.82 79.1 14.78"/><polygon class="cls-17" points="79.22 19.07 78.6 21.74 75.35 24.81 75.17 16.59 79.22 19.07"/><polygon class="cls-26" points="79.1 14.78 82.44 18.61 82.91 24.43 80.16 22.14 79.22 19.07 79.1 14.78"/><polygon class="cls-18" points="79.22 19.07 82.91 24.43 77.62 26.88 75.35 24.81 79.22 19.07"/><polygon class="cls-16" points="62.08 33.68 70.06 37.12 68.76 54.18 59.73 45.32 62.08 33.68"/><polygon class="cls-27" points="59.73 45.32 58.74 51.09 59.23 52.01 58.35 53.39 57.41 58.92 61.8 63.04 67.22 63.04 69.36 54.18 66.78 49.87 59.73 45.32"/><polygon class="cls-15" points="69.36 38.67 78.38 35.65 82.24 35.65 82.24 39.95 79.93 43.74 73.13 49.87 66.78 49.87 69.36 38.67"/><polygon class="cls-20" points="66.78 49.87 79.93 43.74 81.66 48.21 79.35 57.11 80.28 60 73.83 63.35 67.22 63.04 66.78 49.87"/><polygon class="cls-21" points="69.51 35.65 79.3 31.4 76.32 30.66 77.62 26.88 83.53 31.07 79.66 34.87 69.36 38.67 68.54 36.36 69.51 35.65"/><polygon class="cls-22" points="63.68 31.55 62.08 33.68 69.36 38.67 69.51 35.65 63.68 31.55"/><polygon class="cls-18" points="82.24 35.65 83.53 31.07 69.36 38.67 82.24 35.65"/><polygon class="cls-16" points="82.31 38.87 84.7 41.48 87.96 49.22 82.76 48.98 80.02 47.94 79.93 43.74 82.31 38.87"/><polygon class="cls-3" points="79.93 43.74 84.7 41.48 82.24 35.65 79.93 43.74"/><polygon class="cls-16" points="80.28 49.22 75.35 52.8 76.44 55.36 80.22 57.11 87.96 49.22 80.28 49.22"/><polygon class="cls-3" points="80.02 47.94 87.96 49.22 75.35 52.8 80.02 47.94"/><polygon class="cls-16" points="56.34 41.37 48.37 40.09 49.62 46.33 59.73 45.32 56.34 41.37"/><polygon class="cls-22" points="58.74 51.09 62.61 49.22 63.41 50.9 58.35 53.39 58.74 51.09"/><polygon class="cls-21" points="80.22 57.11 72.98 50.71 71.59 52.35 80.28 60 80.22 57.11"/><polygon class="cls-21" points="67.22 63.04 57.41 58.92 56.7 63.04 67.46 69.98 69.02 65.66 67.22 63.04"/><polygon class="cls-18" points="80.28 60 80.43 66.99 67.46 69.98 67.22 63.04 80.28 60"/><polygon class="cls-26" points="49.56 87.55 46.25 27.34 43.67 21.62 45.58 15.1 45.42 12.3 47.74 12.17 47.88 14.78 47.28 15.84 47.98 16.52 48.46 25.35 47.77 26.26 48.56 27.23 51.88 87.41 49.56 87.55"/><polygon class="cls-11" points="46.72 35.83 43.67 38.93 47.23 45.08 47.66 40.8 46.72 35.83"/><polygon class="cls-10" points="46.72 35.83 50.2 37.02 49.44 43.18 47.23 45.08 46.72 35.83"/><polygon class="cls-19" points="47.88 14.78 40.97 15.75 39.95 27.64 48.56 27.23 48.46 25.35 46.15 25.46 45.67 16.76 47.98 16.52 47.88 14.78"/><polygon class="cls-16" points="58.32 64.09 63.9 78.71 60.37 78.53 57.29 76.93 58.32 64.09"/><polygon class="cls-17" points="57.29 76.93 63.9 78.71 61.46 82.87 56.83 82.59 57.29 76.93"/><polygon class="cls-18" points="63.9 78.71 56.83 82.59 58.32 84.34 61.74 84.01 63.9 78.71"/><polygon class="cls-21" points="56.83 82.59 51.88 87.41 56.46 87.73 61.76 86.8 61.74 84.01 56.83 82.59"/><polygon class="cls-17" points="51.96 88.96 61.77 88.55 61.76 86.8 51.88 87.41 51.96 88.96"/><polygon class="cls-21" points="74.4 85.45 73.83 88.71 77.95 89.42 82.08 88.31 79.22 84.61 74.4 85.45"/><polygon class="cls-17" points="73.83 88.71 73.94 90.54 81.96 90.07 82.08 88.31 73.83 88.71"/></svg>